<mxfile host="Electron" modified="2024-02-08T17:45:37.135Z" agent="Mozilla/5.0 (Windows NT 10.0; Win64; x64) AppleWebKit/537.36 (KHTML, like Gecko) draw.io/22.1.18 Chrome/120.0.6099.199 Electron/28.1.2 Safari/537.36" etag="sLaHFPWzDCcUNwuYBTPj" version="22.1.18" type="device">
  <diagram id="x9SKlqrg6bpuqgRpPf6P" name="Page-1">
    <mxGraphModel dx="1035" dy="674" grid="0" gridSize="10" guides="1" tooltips="1" connect="1" arrows="1" fold="1" page="1" pageScale="1" pageWidth="1600" pageHeight="1200" math="0" shadow="0">
      <root>
        <mxCell id="0" />
        <mxCell id="1" parent="0" />
        <mxCell id="ZJ-kVaQsL1nYTRCFb4d5-1" value="" style="edgeStyle=orthogonalEdgeStyle;rounded=0;orthogonalLoop=1;jettySize=auto;html=1;" edge="1" parent="1" source="NCUArfBDz2Gf4-ogh0ME-40" target="NCUArfBDz2Gf4-ogh0ME-42">
          <mxGeometry relative="1" as="geometry" />
        </mxCell>
        <mxCell id="NCUArfBDz2Gf4-ogh0ME-40" value="" style="ellipse;html=1;shape=startState;fillColor=#000000;strokeColor=#ff0000;" parent="1" vertex="1">
          <mxGeometry x="750" y="80" width="30" height="30" as="geometry" />
        </mxCell>
        <mxCell id="ZJ-kVaQsL1nYTRCFb4d5-8" value="" style="edgeStyle=orthogonalEdgeStyle;rounded=0;orthogonalLoop=1;jettySize=auto;html=1;" edge="1" parent="1" source="NCUArfBDz2Gf4-ogh0ME-42" target="ZJ-kVaQsL1nYTRCFb4d5-5">
          <mxGeometry relative="1" as="geometry" />
        </mxCell>
        <mxCell id="NCUArfBDz2Gf4-ogh0ME-42" value="&lt;div&gt;Upload Media&amp;nbsp;&lt;/div&gt;" style="rounded=1;whiteSpace=wrap;html=1;fillColor=#cce5ff;strokeColor=#36393d;" parent="1" vertex="1">
          <mxGeometry x="703.12" y="165" width="123.75" height="50" as="geometry" />
        </mxCell>
        <mxCell id="ZJ-kVaQsL1nYTRCFb4d5-17" style="edgeStyle=orthogonalEdgeStyle;rounded=0;orthogonalLoop=1;jettySize=auto;html=1;" edge="1" parent="1" source="NCUArfBDz2Gf4-ogh0ME-47">
          <mxGeometry relative="1" as="geometry">
            <mxPoint x="623.75" y="445.6449013986895" as="targetPoint" />
          </mxGeometry>
        </mxCell>
        <mxCell id="NCUArfBDz2Gf4-ogh0ME-47" value="Upload selected Image" style="rounded=1;whiteSpace=wrap;html=1;fillColor=#cce5ff;strokeColor=#36393d;" parent="1" vertex="1">
          <mxGeometry x="565" y="367" width="117.5" height="30" as="geometry" />
        </mxCell>
        <mxCell id="ZJ-kVaQsL1nYTRCFb4d5-16" style="edgeStyle=orthogonalEdgeStyle;rounded=0;orthogonalLoop=1;jettySize=auto;html=1;" edge="1" parent="1" source="NCUArfBDz2Gf4-ogh0ME-48">
          <mxGeometry relative="1" as="geometry">
            <mxPoint x="885.6299999999999" y="450.0562665385585" as="targetPoint" />
          </mxGeometry>
        </mxCell>
        <mxCell id="NCUArfBDz2Gf4-ogh0ME-48" value="Upload enterd text&amp;nbsp;" style="rounded=1;whiteSpace=wrap;html=1;fillColor=#cce5ff;strokeColor=#36393d;" parent="1" vertex="1">
          <mxGeometry x="826.88" y="363" width="117.5" height="30" as="geometry" />
        </mxCell>
        <mxCell id="ZJ-kVaQsL1nYTRCFb4d5-20" value="" style="edgeStyle=orthogonalEdgeStyle;rounded=0;orthogonalLoop=1;jettySize=auto;html=1;" edge="1" parent="1" source="NCUArfBDz2Gf4-ogh0ME-57" target="NCUArfBDz2Gf4-ogh0ME-58">
          <mxGeometry relative="1" as="geometry" />
        </mxCell>
        <mxCell id="NCUArfBDz2Gf4-ogh0ME-57" value="Input media to system" style="rounded=1;whiteSpace=wrap;html=1;fillColor=#cce5ff;strokeColor=#36393d;" parent="1" vertex="1">
          <mxGeometry x="703.13" y="660" width="123.75" height="50" as="geometry" />
        </mxCell>
        <mxCell id="NCUArfBDz2Gf4-ogh0ME-58" value="" style="ellipse;html=1;shape=endState;fillColor=#000000;strokeColor=#ff0000;" parent="1" vertex="1">
          <mxGeometry x="750.89" y="771" width="30" height="30" as="geometry" />
        </mxCell>
        <mxCell id="NCUArfBDz2Gf4-ogh0ME-60" value="Validate Media" style="rhombus;whiteSpace=wrap;html=1;fillColor=#ffff88;strokeColor=#36393d;" parent="1" vertex="1">
          <mxGeometry x="713" y="488" width="100" height="100" as="geometry" />
        </mxCell>
        <mxCell id="NCUArfBDz2Gf4-ogh0ME-61" value="" style="endArrow=classic;html=1;rounded=0;fontSize=10;exitX=1;exitY=0.5;exitDx=0;exitDy=0;" parent="1" source="NCUArfBDz2Gf4-ogh0ME-60" target="NCUArfBDz2Gf4-ogh0ME-63" edge="1">
          <mxGeometry width="50" height="50" relative="1" as="geometry">
            <mxPoint x="774.4200000000001" y="420" as="sourcePoint" />
            <mxPoint x="920" y="570" as="targetPoint" />
            <Array as="points">
              <mxPoint x="966" y="538" />
            </Array>
          </mxGeometry>
        </mxCell>
        <mxCell id="NCUArfBDz2Gf4-ogh0ME-64" value="&lt;font style=&quot;font-size: 14px&quot;&gt;Invalid&lt;/font&gt;" style="edgeLabel;html=1;align=center;verticalAlign=middle;resizable=0;points=[];" parent="NCUArfBDz2Gf4-ogh0ME-61" vertex="1" connectable="0">
          <mxGeometry x="-0.2299" y="-1" relative="1" as="geometry">
            <mxPoint as="offset" />
          </mxGeometry>
        </mxCell>
        <mxCell id="NCUArfBDz2Gf4-ogh0ME-62" value="&lt;font style=&quot;font-size: 14px&quot;&gt;Valid&lt;/font&gt;" style="endArrow=classic;html=1;rounded=0;fontSize=10;exitX=0.5;exitY=1;exitDx=0;exitDy=0;entryX=0.5;entryY=0;entryDx=0;entryDy=0;" parent="1" source="NCUArfBDz2Gf4-ogh0ME-60" target="NCUArfBDz2Gf4-ogh0ME-57" edge="1">
          <mxGeometry width="50" height="50" relative="1" as="geometry">
            <mxPoint x="784.4200000000001" y="430" as="sourcePoint" />
            <mxPoint x="784.4300000000003" y="480" as="targetPoint" />
          </mxGeometry>
        </mxCell>
        <mxCell id="NCUArfBDz2Gf4-ogh0ME-63" value="&lt;font style=&quot;font-size: 14px&quot;&gt;Error Message&amp;nbsp;&lt;/font&gt;" style="rounded=1;whiteSpace=wrap;html=1;fillColor=#cce5ff;strokeColor=#36393d;" parent="1" vertex="1">
          <mxGeometry x="900" y="575" width="135" height="50" as="geometry" />
        </mxCell>
        <mxCell id="NCUArfBDz2Gf4-ogh0ME-66" value="" style="edgeStyle=orthogonalEdgeStyle;rounded=0;orthogonalLoop=1;jettySize=auto;html=1;exitX=0.5;exitY=1;exitDx=0;exitDy=0;entryX=0.5;entryY=0;entryDx=0;entryDy=0;" parent="1" source="NCUArfBDz2Gf4-ogh0ME-63" target="NCUArfBDz2Gf4-ogh0ME-68" edge="1">
          <mxGeometry relative="1" as="geometry">
            <mxPoint x="775" y="420" as="sourcePoint" />
            <mxPoint x="775" y="470.0100000000002" as="targetPoint" />
          </mxGeometry>
        </mxCell>
        <mxCell id="NCUArfBDz2Gf4-ogh0ME-68" value="&lt;font style=&quot;font-size: 14px&quot;&gt;Clear Fields&lt;/font&gt;" style="rounded=1;whiteSpace=wrap;html=1;fillColor=#cce5ff;strokeColor=#36393d;" parent="1" vertex="1">
          <mxGeometry x="900" y="670" width="135" height="50" as="geometry" />
        </mxCell>
        <mxCell id="ZJ-kVaQsL1nYTRCFb4d5-13" style="edgeStyle=orthogonalEdgeStyle;rounded=0;orthogonalLoop=1;jettySize=auto;html=1;entryX=0.5;entryY=0;entryDx=0;entryDy=0;" edge="1" parent="1" source="ZJ-kVaQsL1nYTRCFb4d5-5" target="NCUArfBDz2Gf4-ogh0ME-47">
          <mxGeometry relative="1" as="geometry">
            <Array as="points">
              <mxPoint x="624" y="313" />
            </Array>
          </mxGeometry>
        </mxCell>
        <mxCell id="ZJ-kVaQsL1nYTRCFb4d5-14" value="Image" style="edgeLabel;html=1;align=center;verticalAlign=middle;resizable=0;points=[];" vertex="1" connectable="0" parent="ZJ-kVaQsL1nYTRCFb4d5-13">
          <mxGeometry x="-0.4998" y="-2" relative="1" as="geometry">
            <mxPoint as="offset" />
          </mxGeometry>
        </mxCell>
        <mxCell id="ZJ-kVaQsL1nYTRCFb4d5-5" value="&lt;font style=&quot;font-size: 16px;&quot;&gt;check media type&lt;/font&gt;" style="rhombus;whiteSpace=wrap;html=1;fillColor=#ffff88;strokeColor=#36393d;" vertex="1" parent="1">
          <mxGeometry x="705.77" y="261" width="120.23" height="108" as="geometry" />
        </mxCell>
        <mxCell id="ZJ-kVaQsL1nYTRCFb4d5-9" style="edgeStyle=orthogonalEdgeStyle;rounded=0;orthogonalLoop=1;jettySize=auto;html=1;entryX=0.64;entryY=0.018;entryDx=0;entryDy=0;entryPerimeter=0;" edge="1" parent="1" source="ZJ-kVaQsL1nYTRCFb4d5-5" target="NCUArfBDz2Gf4-ogh0ME-48">
          <mxGeometry relative="1" as="geometry" />
        </mxCell>
        <mxCell id="ZJ-kVaQsL1nYTRCFb4d5-10" value="Text" style="edgeLabel;html=1;align=center;verticalAlign=middle;resizable=0;points=[];" vertex="1" connectable="0" parent="ZJ-kVaQsL1nYTRCFb4d5-9">
          <mxGeometry x="-0.1472" relative="1" as="geometry">
            <mxPoint as="offset" />
          </mxGeometry>
        </mxCell>
        <mxCell id="ZJ-kVaQsL1nYTRCFb4d5-15" value="" style="endArrow=none;html=1;rounded=0;strokeWidth=6;" edge="1" parent="1">
          <mxGeometry width="50" height="50" relative="1" as="geometry">
            <mxPoint x="619" y="451" as="sourcePoint" />
            <mxPoint x="886.88" y="453" as="targetPoint" />
          </mxGeometry>
        </mxCell>
        <mxCell id="ZJ-kVaQsL1nYTRCFb4d5-18" style="edgeStyle=orthogonalEdgeStyle;rounded=0;orthogonalLoop=1;jettySize=auto;html=1;entryX=0.996;entryY=0.361;entryDx=0;entryDy=0;entryPerimeter=0;strokeWidth=2;" edge="1" parent="1" source="NCUArfBDz2Gf4-ogh0ME-68" target="NCUArfBDz2Gf4-ogh0ME-42">
          <mxGeometry relative="1" as="geometry">
            <Array as="points">
              <mxPoint x="1061" y="695" />
              <mxPoint x="1061" y="183" />
            </Array>
          </mxGeometry>
        </mxCell>
        <mxCell id="ZJ-kVaQsL1nYTRCFb4d5-19" style="edgeStyle=orthogonalEdgeStyle;rounded=0;orthogonalLoop=1;jettySize=auto;html=1;" edge="1" parent="1" target="NCUArfBDz2Gf4-ogh0ME-60">
          <mxGeometry relative="1" as="geometry">
            <mxPoint x="895.6299999999999" y="460.0562665385585" as="targetPoint" />
            <mxPoint x="762" y="453" as="sourcePoint" />
            <Array as="points">
              <mxPoint x="762" y="450" />
              <mxPoint x="763" y="450" />
            </Array>
          </mxGeometry>
        </mxCell>
      </root>
    </mxGraphModel>
  </diagram>
</mxfile>
